<svg width="69" height="28" viewBox="0 0 69 28" fill="none" xmlns="http://www.w3.org/2000/svg">
<path d="M20.061 13.0844H15.2934C15.2063 12.4842 15.0286 11.9511 14.7601 11.485C14.4916 11.0119 14.1469 10.6095 13.726 10.2776C13.3051 9.94569 12.8189 9.69149 12.2674 9.51496C11.7231 9.33842 11.1317 9.25016 10.4931 9.25016C9.33933 9.25016 8.33428 9.52908 7.47799 10.0869C6.62171 10.6377 5.95772 11.4427 5.48604 12.5019C5.01436 13.554 4.77851 14.8321 4.77851 16.3361C4.77851 17.8826 5.01436 19.1818 5.48604 20.234C5.96498 21.2861 6.63259 22.0805 7.48888 22.6171C8.34517 23.1538 9.3357 23.4221 10.4605 23.4221C11.0918 23.4221 11.676 23.3409 12.213 23.1785C12.7572 23.0161 13.2398 22.7795 13.6607 22.4688C14.0816 22.1511 14.4299 21.7663 14.7056 21.3143C14.9886 20.8624 15.1846 20.4603 15.2934 19.8813L20.061 19.9025C19.9377 20.8981 19.6293 21.7451 19.1358 22.6701C18.6496 23.5881 17.9929 24.4107 17.1656 25.138C16.3456 25.8583 15.366 26.4302 14.2267 26.8539C13.0947 27.2705 11.8139 27.4788 10.3843 27.4788C8.39596 27.4788 6.61808 27.041 5.05064 26.1654C3.49046 25.2898 2.25682 24.0223 1.34974 22.3629C0.449913 20.7035 0 18.6946 0 16.3361C0 13.9706 0.45717 11.9582 1.37151 10.2988C2.28585 8.63936 3.52674 7.37539 5.09418 6.50686C6.66162 5.63126 8.42499 5.19346 10.3843 5.19346C11.676 5.19346 12.8733 5.36999 13.9763 5.72305C15.0866 6.07612 16.0699 6.59159 16.9262 7.26947C17.7825 7.94029 18.4791 8.76293 19.0161 9.73738C19.5603 10.7118 19.9087 11.8275 20.061 13.0844Z" fill="#1E293B"/>
<path d="M46.7892 0.5V27.1822H42.1521V0.5H46.7892Z" fill="#1E293B"/>
<path d="M50.5037 27.1822V10.9131H55.1407V27.1822H50.5037Z" fill="#1E293B"/>
<path d="M58.8552 27.1822V10.9131H63.3507V13.7517H63.5248C63.8296 12.742 64.3412 11.9793 65.0596 11.4639C65.778 10.9413 66.6053 10.6801 67.5414 10.6801C67.7736 10.6801 68.024 10.6942 68.2925 10.7224C68.561 10.7507 68.7968 10.7895 69 10.8389V14.8427C68.7823 14.7791 68.4811 14.7226 68.0965 14.6732C67.7119 14.6238 67.36 14.5991 67.0407 14.5991C66.3586 14.5991 65.749 14.7438 65.212 15.0333C64.6823 15.3158 64.2614 15.7112 63.9494 16.2196C63.6446 16.728 63.4922 17.3141 63.4922 17.9779V27.1822H58.8552Z" fill="#1E293B"/>
<path d="M30.908 27.5C29.2172 27.5 27.7549 27.1505 26.5213 26.4514C25.2949 25.7453 24.3479 24.7638 23.6803 23.5069C23.0127 22.2429 22.6789 20.7777 22.6789 19.1112C22.6789 17.4306 23.0127 15.9619 23.6803 14.705C24.3479 13.441 25.2949 12.4595 26.5213 11.7604C27.7549 11.0543 29.2172 10.7012 30.908 10.7012C32.5988 10.7012 34.0574 11.0543 35.2837 11.7604C36.5174 12.4595 37.468 13.441 38.1356 14.705C38.8032 15.9619 39.137 17.4306 39.137 19.1112C39.137 20.7777 38.8032 22.2429 38.1356 23.5069C37.468 24.7638 36.5174 25.7453 35.2837 26.4514C34.0574 27.1505 32.5988 27.5 30.908 27.5ZM30.9297 24.0047C31.6989 24.0047 32.3412 23.7928 32.8564 23.3692C33.3716 22.9384 33.7598 22.3523 34.0211 21.6109C34.2896 20.8695 34.4238 20.0257 34.4238 19.0794C34.4238 18.1332 34.2896 17.2894 34.0211 16.548C33.7598 15.8065 33.3716 15.2205 32.8564 14.7897C32.3412 14.359 31.6989 14.1436 30.9297 14.1436C30.1533 14.1436 29.5002 14.359 28.9704 14.7897C28.448 15.2205 28.0525 15.8065 27.784 16.548C27.5227 17.2894 27.3921 18.1332 27.3921 19.0794C27.3921 20.0257 27.5227 20.8695 27.784 21.6109C28.0525 22.3523 28.448 22.9384 28.9704 23.3692C29.5002 23.7928 30.1533 24.0047 30.9297 24.0047Z" fill="url(#paint0_linear_467_1369)"/>
<path d="M50.3174 6.88827C50.3174 5.51123 51.3203 4.39964 52.5609 4.39964C53.5489 4.39964 53.69 2.32579 54.0615 2.74056C54.8786 3.63647 55.5621 4.80612 55.5621 6.05873C55.5621 7.88371 54.2249 9.37689 52.5609 9.37689C52.2672 9.37798 51.9763 9.31447 51.7046 9.19C51.4329 9.06552 51.1859 8.88251 50.9776 8.65142C50.7692 8.42033 50.6037 8.14569 50.4904 7.84316C50.3772 7.54064 50.3184 7.21617 50.3174 6.88827Z" fill="#1E293B"/>
<defs>
<linearGradient id="paint0_linear_467_1369" x1="26.1337" y1="13.3462" x2="37.9239" y2="25.4627" gradientUnits="userSpaceOnUse">
<stop offset="0.18" stop-color="#1E293B"/>
<stop offset="0.181" stop-color="#FF0000"/>
<stop offset="0.31" stop-color="#FF0000"/>
<stop offset="0.31" stop-color="#FFC700"/>
<stop offset="0.44" stop-color="#FFC700"/>
<stop offset="0.44" stop-color="#0764FB"/>
<stop offset="0.57" stop-color="#0764FB"/>
<stop offset="0.57" stop-color="#14C45A"/>
<stop offset="0.7" stop-color="#14C35A"/>
<stop offset="0.7" stop-color="#1E293B"/>
</linearGradient>
</defs>
</svg>
